<?xml version="1.0" standalone="no"?>
<!DOCTYPE svg PUBLIC "-//W3C//DTD SVG 20010904//EN"
 "http://www.w3.org/TR/2001/REC-SVG-20010904/DTD/svg10.dtd">
<svg version="1.0" xmlns="http://www.w3.org/2000/svg"
 width="1500.000000pt" height="1500.000000pt" viewBox="0 0 1500.000000 1500.000000"
 preserveAspectRatio="xMidYMid meet">
<metadata>
Created by potrace 1.14, written by Peter Selinger 2001-2017
</metadata>
<g transform="translate(0.000000,1500.000000) scale(0.100000,-0.100000)"
fill="#000000" stroke="none">
<path d="M7168 14995 c-2 -2 -55 -6 -118 -9 -63 -4 -133 -9 -155 -11 -22 -2
-71 -7 -110 -10 -38 -3 -83 -7 -100 -10 -16 -2 -55 -6 -85 -10 -30 -3 -82 -10
-115 -15 -33 -5 -80 -12 -105 -15 -25 -3 -83 -13 -130 -20 -81 -14 -104 -19
-160 -30 -14 -2 -40 -7 -59 -10 -19 -3 -37 -8 -40 -10 -4 -2 -25 -6 -47 -9
-23 -4 -55 -11 -73 -16 -17 -5 -35 -9 -39 -10 -4 0 -23 -5 -42 -10 -19 -5 -46
-11 -60 -14 -165 -29 -783 -223 -947 -297 -24 -10 -49 -19 -56 -19 -7 0 -17
-4 -23 -9 -5 -4 -38 -19 -74 -33 -36 -14 -90 -37 -120 -51 -30 -13 -80 -35
-110 -48 -153 -66 -549 -273 -742 -388 -220 -132 -448 -285 -663 -446 -94 -70
-172 -131 -175 -134 -3 -3 -38 -33 -79 -66 -178 -144 -328 -281 -541 -494
-298 -299 -486 -515 -722 -831 -177 -238 -414 -606 -543 -845 -21 -38 -49 -90
-63 -115 -33 -62 -76 -144 -77 -150 -1 -3 -30 -63 -64 -135 -120 -247 -231
-520 -326 -795 -67 -199 -161 -518 -196 -670 -6 -25 -12 -52 -14 -60 -5 -19
-35 -160 -40 -180 -8 -41 -50 -274 -61 -340 -2 -14 -6 -34 -9 -45 -2 -11 -7
-46 -10 -78 -4 -32 -8 -66 -10 -75 -2 -10 -6 -45 -10 -77 -4 -33 -8 -71 -10
-84 -2 -12 -7 -60 -10 -105 -4 -44 -8 -91 -10 -103 -26 -166 -26 -986 0 -1213
2 -19 6 -70 10 -112 4 -43 8 -90 10 -105 9 -82 18 -150 20 -168 2 -11 8 -58
15 -105 6 -47 22 -143 35 -215 13 -71 27 -144 30 -162 8 -47 93 -413 104 -448
5 -16 19 -66 31 -110 158 -579 417 -1192 737 -1745 133 -231 423 -663 540
-805 4 -5 24 -30 43 -55 36 -46 230 -281 240 -290 3 -3 39 -43 80 -90 85 -97
401 -416 505 -511 140 -127 186 -167 321 -279 78 -65 118 -96 229 -179 61 -46
119 -90 129 -98 83 -67 621 -413 642 -413 3 0 18 -9 33 -20 59 -41 462 -247
656 -335 384 -173 926 -358 1290 -440 11 -3 56 -14 100 -24 68 -17 197 -44
310 -66 28 -5 314 -50 381 -60 17 -2 57 -7 90 -10 32 -3 68 -7 79 -10 11 -2
54 -7 95 -10 41 -3 93 -8 115 -10 256 -26 1045 -27 1205 0 14 2 61 6 105 10
44 3 96 8 115 10 19 2 58 7 85 10 46 5 277 39 350 51 569 93 1267 304 1804
546 115 52 435 210 518 256 51 29 107 60 125 70 18 9 44 24 58 33 14 8 77 46
140 84 209 125 658 436 730 506 8 8 33 27 55 44 62 46 220 179 330 279 127
114 469 456 560 560 39 44 78 87 87 97 14 14 106 126 226 274 10 11 44 56 77
100 33 44 62 82 65 85 3 3 21 28 39 55 19 28 38 52 41 55 26 21 327 496 443
700 102 179 306 606 387 810 22 58 45 114 51 125 25 55 152 427 208 611 48
158 140 548 175 739 25 133 41 234 51 315 4 30 9 63 11 74 2 10 6 44 9 75 3
31 8 67 10 81 2 14 7 61 10 105 4 44 8 96 10 115 27 237 27 911 0 1205 -13
155 -16 184 -21 230 -3 28 -7 61 -10 75 -2 14 -8 61 -14 105 -6 44 -12 91 -15
105 -2 14 -11 68 -19 120 -17 102 -20 117 -41 225 -49 243 -165 700 -196 770
-4 11 -23 65 -40 120 -44 138 -128 366 -184 500 -60 142 -76 179 -106 245 -51
115 -217 445 -271 538 -26 46 -48 86 -48 88 0 3 -13 25 -30 49 -16 24 -30 46
-30 49 0 10 -155 255 -248 391 -97 144 -267 375 -333 455 -21 25 -75 90 -120
145 -45 55 -123 145 -172 200 -110 122 -487 498 -582 580 -39 33 -75 64 -81
70 -6 5 -33 29 -60 52 -27 23 -59 50 -71 60 -22 19 -27 23 -103 84 -86 69
-270 209 -275 209 -3 0 -31 19 -62 43 -81 61 -337 229 -468 308 -587 354
-1278 649 -1905 816 -55 15 -242 62 -270 68 -66 15 -252 54 -280 59 -19 3 -46
8 -60 11 -30 6 -147 26 -177 30 -13 2 -42 7 -65 11 -24 4 -52 8 -63 9 -11 2
-56 8 -100 14 -44 6 -107 13 -140 16 -33 3 -76 7 -95 10 -19 2 -75 7 -125 11
-49 4 -108 9 -130 11 -49 4 -793 12 -797 8z"/>
</g>
</svg>
